<?xml version="1.0" standalone="no"?>
<!DOCTYPE svg PUBLIC "-//W3C//DTD SVG 20010904//EN"
 "http://www.w3.org/TR/2001/REC-SVG-20010904/DTD/svg10.dtd">
<svg version="1.0" xmlns="http://www.w3.org/2000/svg"
 width="92.000000pt" height="183.000000pt" viewBox="0 0 92.000000 183.000000"
 preserveAspectRatio="xMidYMid meet">
<metadata>
Created by potrace 1.16, written by Peter Selinger 2001-2019
</metadata>
<g transform="translate(0.000000,183.000000) scale(0.100000,-0.100000)"
fill="#000000" stroke="none">
<path d="M659 1810 c-121 -50 -222 -214 -268 -437 -6 -29 -14 -116 -17 -193
-4 -77 -10 -143 -14 -145 -21 -13 -220 -45 -281 -45 l-73 0 44 -45 c31 -31 50
-43 62 -39 10 3 18 1 18 -5 0 -16 38 -13 135 10 48 11 89 18 91 16 9 -9 -17
-593 -31 -725 -8 -74 -15 -149 -15 -168 0 -34 0 -34 48 -34 l48 0 17 172 c10
95 22 308 28 473 6 165 12 301 13 302 2 3 88 14 245 34 52 6 106 15 120 19 14
5 38 11 52 14 25 5 26 8 21 53 -2 27 -6 49 -7 51 -1 1 -22 -2 -46 -8 -90 -23
-136 -31 -234 -40 -55 -5 -110 -12 -122 -16 -22 -6 -23 -4 -23 62 1 249 62
456 163 551 53 50 90 67 134 58 29 -5 32 -9 27 -33 -4 -22 1 -33 25 -55 37
-33 45 -33 65 -5 19 27 21 96 4 133 -26 57 -144 80 -229 45z"/>
</g>
</svg>
