<?xml version="1.0" standalone="no"?>
<!DOCTYPE svg PUBLIC "-//W3C//DTD SVG 20010904//EN"
 "http://www.w3.org/TR/2001/REC-SVG-20010904/DTD/svg10.dtd">
<svg version="1.0" xmlns="http://www.w3.org/2000/svg"
 width="100.000000pt" height="192.000000pt" viewBox="0 0 100.000000 192.000000"
 preserveAspectRatio="xMidYMid meet">
<metadata>
Created by potrace 1.16, written by Peter Selinger 2001-2019
</metadata>
<g transform="translate(0.000000,192.000000) scale(0.100000,-0.100000)"
fill="#000000" stroke="none">
<path d="M580 1895 c-109 -28 -287 -114 -331 -160 -53 -56 -138 -169 -165
-219 -42 -77 -84 -229 -84 -304 0 -52 6 -79 31 -131 26 -57 39 -72 95 -111 65
-44 66 -44 165 -48 96 -4 101 -3 172 30 89 43 128 76 203 173 31 41 58 75 60
75 2 0 1 -19 -1 -42 -58 -482 -68 -606 -72 -875 l-5 -283 40 0 c61 0 81 14
142 98 30 42 81 105 113 141 l58 66 -38 32 -38 32 -38 -37 c-22 -20 -56 -63
-78 -94 -21 -31 -44 -60 -51 -64 -17 -11 -4 352 21 566 11 96 34 303 51 460
17 157 38 328 46 380 48 297 48 310 15 310 -9 0 -25 7 -35 15 -30 23 -163 18
-276 -10z m210 -114 c0 -22 -11 -105 -25 -185 -21 -121 -32 -159 -69 -234 -49
-101 -109 -184 -185 -255 -70 -66 -119 -87 -207 -87 -63 0 -76 3 -119 32 -57
38 -84 91 -85 164 0 60 40 200 74 258 40 68 145 194 179 214 128 79 279 129
390 131 l47 1 0 -39z"/>
</g>
</svg>
