<?xml version="1.0" standalone="no"?>
<!DOCTYPE svg PUBLIC "-//W3C//DTD SVG 20010904//EN"
 "http://www.w3.org/TR/2001/REC-SVG-20010904/DTD/svg10.dtd">
<svg version="1.0" xmlns="http://www.w3.org/2000/svg"
 width="109.000000pt" height="156.000000pt" viewBox="0 0 109.000000 156.000000"
 preserveAspectRatio="xMidYMid meet">
<metadata>
Created by potrace 1.16, written by Peter Selinger 2001-2019
</metadata>
<g transform="translate(0.000000,156.000000) scale(0.100000,-0.100000)"
fill="#000000" stroke="none">
<path d="M110 1507 l0 -56 58 0 c71 0 120 -20 159 -65 46 -52 58 -97 58 -221
l0 -110 -82 -135 c-90 -150 -193 -358 -229 -465 -13 -38 -35 -104 -49 -145
-22 -65 -25 -88 -23 -182 l3 -107 70 136 c38 74 84 158 102 186 18 28 33 55
33 59 0 4 13 29 29 55 34 55 106 213 146 321 15 40 29 72 31 70 2 -2 8 -45 14
-95 9 -83 45 -216 72 -267 23 -44 99 -135 138 -166 23 -18 74 -46 113 -62 61
-25 89 -30 187 -34 138 -6 148 -2 132 54 l-12 39 -103 5 c-154 8 -210 32 -296
124 -60 64 -72 84 -95 154 -74 222 -44 462 76 607 29 36 58 68 64 71 5 4 45
50 87 103 68 85 77 101 77 138 l0 41 -53 0 c-53 0 -54 -1 -125 -72 -82 -84
-130 -148 -170 -232 l-28 -58 -12 71 c-13 78 -56 173 -93 208 -40 36 -137 73
-210 79 l-69 7 0 -56z"/>
</g>
</svg>
