<?xml version="1.0" standalone="no"?>
<!DOCTYPE svg PUBLIC "-//W3C//DTD SVG 20010904//EN"
 "http://www.w3.org/TR/2001/REC-SVG-20010904/DTD/svg10.dtd">
<svg version="1.0" xmlns="http://www.w3.org/2000/svg"
 width="98.000000pt" height="136.000000pt" viewBox="0 0 98.000000 136.000000"
 preserveAspectRatio="xMidYMid meet">
<metadata>
Created by potrace 1.16, written by Peter Selinger 2001-2019
</metadata>
<g transform="translate(0.000000,136.000000) scale(0.100000,-0.100000)"
fill="#000000" stroke="none">
<path d="M866 1308 c-4 -31 -29 -97 -60 -163 -52 -107 -104 -232 -145 -345
-10 -30 -45 -125 -76 -210 -31 -85 -70 -197 -87 -248 -17 -50 -34 -92 -37 -92
-7 0 -71 164 -71 181 0 6 -13 41 -29 77 -16 37 -59 175 -96 307 -80 287 -107
365 -148 427 -31 47 -61 68 -97 68 -17 0 -20 -7 -20 -46 0 -36 6 -51 28 -75
33 -36 57 -105 152 -437 39 -134 76 -255 84 -270 7 -15 36 -95 64 -177 28 -83
57 -163 66 -179 8 -16 17 -51 21 -77 l7 -49 53 0 53 0 5 68 c3 37 10 85 15
107 15 61 159 473 187 534 14 29 25 58 25 63 0 20 93 243 150 361 37 76 61
142 66 175 l7 52 -55 0 -55 0 -7 -52z"/>
</g>
</svg>
