<?xml version="1.0" standalone="no"?>
<!DOCTYPE svg PUBLIC "-//W3C//DTD SVG 20010904//EN"
 "http://www.w3.org/TR/2001/REC-SVG-20010904/DTD/svg10.dtd">
<svg version="1.0" xmlns="http://www.w3.org/2000/svg"
 width="107.000000pt" height="117.000000pt" viewBox="0 0 107.000000 117.000000"
 preserveAspectRatio="xMidYMid meet">
<metadata>
Created by potrace 1.16, written by Peter Selinger 2001-2019
</metadata>
<g transform="translate(0.000000,117.000000) scale(0.100000,-0.100000)"
fill="#000000" stroke="none">
<path d="M715 1164 c-185 -21 -251 -30 -375 -55 -80 -16 -170 -36 -200 -44
-30 -9 -70 -20 -88 -25 -19 -4 -35 -10 -36 -12 -1 -1 -1 -25 2 -51 4 -48 4
-48 36 -41 17 3 64 17 105 30 40 13 103 29 140 34 36 6 82 15 101 20 66 17
250 39 387 46 l137 7 -35 -47 c-18 -26 -100 -110 -180 -187 l-147 -139 -116 0
-116 0 0 -50 0 -50 62 0 63 0 -110 -108 c-61 -59 -155 -149 -208 -200 -54 -50
-106 -107 -117 -125 -37 -59 -21 -123 36 -151 43 -20 84 -20 154 0 335 96 555
144 733 160 66 6 77 9 77 25 0 14 7 19 25 19 21 0 25 5 25 32 l0 31 -102 -6
c-187 -11 -402 -54 -690 -138 -194 -57 -202 -53 -103 46 44 45 157 154 250
244 165 157 171 162 205 157 19 -3 67 -8 105 -12 l71 -6 14 42 c16 48 8 59
-45 61 -16 0 -41 4 -54 8 -22 6 -17 13 73 97 105 99 200 210 222 261 24 56 18
91 -18 113 -28 17 -49 20 -143 18 -60 0 -123 -2 -140 -4z"/>
</g>
</svg>
