<?xml version="1.0" standalone="no"?>
<!DOCTYPE svg PUBLIC "-//W3C//DTD SVG 20010904//EN"
 "http://www.w3.org/TR/2001/REC-SVG-20010904/DTD/svg10.dtd">
<svg version="1.0" xmlns="http://www.w3.org/2000/svg"
 width="121.000000pt" height="236.000000pt" viewBox="0 0 121.000000 236.000000"
 preserveAspectRatio="xMidYMid meet">
<metadata>
Created by potrace 1.16, written by Peter Selinger 2001-2019
</metadata>
<g transform="translate(0.000000,236.000000) scale(0.100000,-0.100000)"
fill="#000000" stroke="none">
<path d="M91 2274 c-21 -153 -25 -471 -7 -653 23 -240 19 -459 -14 -791 -5
-52 -16 -180 -24 -285 -9 -104 -22 -226 -30 -270 -20 -105 -21 -225 -3 -225 8
0 13 -10 13 -23 l-1 -22 205 0 c225 0 295 12 433 74 110 50 270 151 330 209
73 71 162 219 193 320 50 160 22 329 -75 459 -52 70 -59 76 -151 127 -55 31
-56 31 -205 30 -141 -1 -155 -3 -237 -32 -130 -46 -200 -98 -311 -233 l-28
-34 6 70 c16 216 17 447 1 617 -9 97 -16 225 -16 285 1 120 15 346 26 387 5
22 3 26 -15 26 -16 0 -21 6 -21 25 0 21 -5 25 -28 25 -29 0 -29 -1 -41 -86z
m814 -1165 c83 -36 156 -124 187 -222 93 -299 -167 -630 -602 -762 -37 -12
-107 -19 -219 -22 -158 -5 -163 -5 -157 14 10 32 25 165 26 227 0 32 5 77 11
100 19 73 37 149 54 231 24 114 43 163 86 220 41 56 118 131 164 162 28 18
139 57 195 67 48 9 225 -1 255 -15z"/>
</g>
</svg>
