<?xml version="1.0" standalone="no"?>
<!DOCTYPE svg PUBLIC "-//W3C//DTD SVG 20010904//EN"
 "http://www.w3.org/TR/2001/REC-SVG-20010904/DTD/svg10.dtd">
<svg version="1.0" xmlns="http://www.w3.org/2000/svg"
 width="106.000000pt" height="220.000000pt" viewBox="0 0 106.000000 220.000000"
 preserveAspectRatio="xMidYMid meet">
<metadata>
Created by potrace 1.16, written by Peter Selinger 2001-2019
</metadata>
<g transform="translate(0.000000,220.000000) scale(0.100000,-0.100000)"
fill="#000000" stroke="none">
<path d="M960 2169 c0 -17 -6 -40 -12 -52 -9 -16 -16 -164 -25 -522 -8 -348
-16 -535 -28 -615 -9 -63 -20 -155 -26 -205 -12 -110 -14 -118 -24 -80 -5 17
-17 41 -27 55 -11 14 -38 54 -61 89 -57 88 -107 133 -206 188 -77 42 -90 46
-155 47 -63 0 -76 -3 -111 -28 -132 -96 -253 -285 -274 -433 -24 -162 -12
-246 52 -366 76 -143 265 -192 502 -131 147 38 169 42 223 36 l48 -4 -4 -58
-4 -58 33 -5 c19 -3 43 -7 54 -9 18 -3 21 5 28 72 5 41 6 146 4 233 -6 186 8
365 48 632 10 69 18 256 26 600 8 385 14 509 25 538 8 20 14 53 14 72 l0 35
-50 0 c-49 0 -50 -1 -50 -31z m-460 -1227 c61 -34 138 -106 179 -167 35 -53
111 -203 111 -221 0 -6 11 -38 25 -72 19 -48 25 -79 25 -142 l0 -80 -70 0
c-38 0 -93 -7 -122 -15 -29 -8 -87 -24 -128 -35 -58 -17 -93 -20 -157 -17
-140 8 -210 59 -249 183 -20 64 -15 205 10 289 29 96 158 264 229 299 39 18
89 11 147 -22z"/>
</g>
</svg>
