<?xml version="1.0" standalone="no"?>
<!DOCTYPE svg PUBLIC "-//W3C//DTD SVG 20010904//EN"
 "http://www.w3.org/TR/2001/REC-SVG-20010904/DTD/svg10.dtd">
<svg version="1.0" xmlns="http://www.w3.org/2000/svg"
 width="85.000000pt" height="171.000000pt" viewBox="0 0 85.000000 171.000000"
 preserveAspectRatio="xMidYMid meet">
<metadata>
Created by potrace 1.16, written by Peter Selinger 2001-2019
</metadata>
<g transform="translate(0.000000,171.000000) scale(0.100000,-0.100000)"
fill="#000000" stroke="none">
<path d="M372 1695 c-23 -7 -50 -19 -58 -26 -17 -14 -107 -188 -118 -229 -4
-14 -19 -56 -34 -95 -25 -66 -27 -68 -33 -40 -4 17 -7 63 -8 103 -1 65 -3 72
-21 72 -15 0 -20 7 -20 25 0 21 -5 25 -32 25 l-31 0 7 -152 c4 -84 11 -214 15
-288 6 -100 5 -157 -5 -219 -13 -80 -34 -553 -34 -768 l0 -103 49 0 48 0 12
178 c7 97 17 218 22 267 6 50 14 198 19 330 8 237 8 241 43 350 87 270 154
434 190 464 26 21 81 24 114 7 40 -20 103 -97 135 -166 39 -80 94 -281 107
-385 23 -191 12 -505 -26 -740 -9 -55 -18 -119 -20 -142 l-5 -43 50 0 50 0 4
38 c3 20 12 80 21 132 39 241 50 596 22 785 -15 105 -83 350 -108 388 -7 12
-19 38 -25 57 -15 45 -111 143 -166 170 -48 23 -102 25 -164 5z"/>
</g>
</svg>
