<?xml version="1.0" standalone="no"?>
<!DOCTYPE svg PUBLIC "-//W3C//DTD SVG 20010904//EN"
 "http://www.w3.org/TR/2001/REC-SVG-20010904/DTD/svg10.dtd">
<svg version="1.0" xmlns="http://www.w3.org/2000/svg"
 width="130.000000pt" height="143.000000pt" viewBox="0 0 130.000000 143.000000"
 preserveAspectRatio="xMidYMid meet">
<metadata>
Created by potrace 1.16, written by Peter Selinger 2001-2019
</metadata>
<g transform="translate(0.000000,143.000000) scale(0.100000,-0.100000)"
fill="#000000" stroke="none">
<path d="M305 1415 c-22 -7 -57 -19 -78 -25 -52 -16 -111 -57 -171 -119 l-50
-51 29 -30 c31 -32 65 -40 65 -15 0 8 5 15 11 15 7 0 34 20 60 45 26 25 55 45
62 45 8 0 40 11 71 25 61 27 134 32 198 15 59 -17 189 -148 239 -241 7 -13 25
-40 40 -59 54 -70 46 -101 -16 -60 -24 16 -47 20 -117 20 -76 0 -96 -4 -166
-34 -113 -49 -129 -59 -227 -155 -80 -77 -100 -106 -141 -202 -50 -114 -64
-177 -64 -284 0 -145 45 -236 142 -286 57 -29 186 -26 273 6 167 63 256 150
412 404 l21 34 21 -34 c12 -19 24 -45 28 -59 3 -14 19 -46 35 -73 15 -26 28
-53 28 -58 0 -6 9 -22 20 -36 11 -14 20 -31 20 -38 0 -13 91 -93 128 -113 45
-23 70 -15 92 29 12 23 20 42 18 44 -2 1 -24 12 -49 24 -48 21 -129 106 -129
134 0 9 -4 18 -10 22 -5 3 -38 63 -72 133 l-63 127 -1 150 c-1 192 -17 240
-135 415 -126 186 -188 247 -282 280 -66 23 -180 26 -242 5z m411 -560 c14
-14 29 -25 34 -25 13 0 63 -102 84 -172 15 -50 16 -59 3 -80 -8 -13 -18 -34
-22 -48 -5 -14 -26 -54 -48 -90 -148 -236 -287 -340 -457 -340 -63 0 -67 2
-102 38 -20 20 -41 47 -47 59 -14 28 -14 186 0 232 46 147 96 231 185 309 27
23 56 48 64 56 23 21 116 65 157 75 74 18 122 13 149 -14z"/>
</g>
</svg>
