<?xml version="1.0" standalone="no"?>
<!DOCTYPE svg PUBLIC "-//W3C//DTD SVG 20010904//EN"
 "http://www.w3.org/TR/2001/REC-SVG-20010904/DTD/svg10.dtd">
<svg version="1.0" xmlns="http://www.w3.org/2000/svg"
 width="84.000000pt" height="198.000000pt" viewBox="0 0 84.000000 198.000000"
 preserveAspectRatio="xMidYMid meet">
<metadata>
Created by potrace 1.16, written by Peter Selinger 2001-2019
</metadata>
<g transform="translate(0.000000,198.000000) scale(0.100000,-0.100000)"
fill="#000000" stroke="none">
<path d="M472 1968 c-26 -32 -62 -135 -76 -220 -30 -181 -36 -256 -38 -488 -3
-200 0 -249 16 -329 17 -83 18 -104 8 -177 -16 -108 -45 -202 -89 -289 -63
-122 -177 -261 -206 -250 -8 4 -18 2 -22 -4 -3 -6 -19 -11 -36 -11 -24 0 -29
-4 -29 -23 0 -29 49 -67 85 -67 61 0 150 72 219 177 56 85 103 177 122 235 10
32 20 58 23 58 7 0 33 -65 51 -125 16 -51 127 -281 154 -318 53 -72 120 -137
141 -137 19 0 23 7 28 47 5 45 3 51 -32 88 -20 22 -46 54 -57 70 -24 34 -97
175 -115 220 -41 106 -74 203 -96 290 -23 91 -24 106 -13 165 24 133 39 270
49 455 7 105 17 231 24 280 6 50 12 142 12 206 0 101 -3 120 -19 138 -22 24
-87 29 -104 9z m-5 -540 c-2 -18 -4 -4 -4 32 0 36 2 50 4 33 2 -18 2 -48 0
-65z"/>
</g>
</svg>
