<?xml version="1.0" standalone="no"?>
<!DOCTYPE svg PUBLIC "-//W3C//DTD SVG 20010904//EN"
 "http://www.w3.org/TR/2001/REC-SVG-20010904/DTD/svg10.dtd">
<svg version="1.0" xmlns="http://www.w3.org/2000/svg"
 width="144.000000pt" height="119.000000pt" viewBox="0 0 144.000000 119.000000"
 preserveAspectRatio="xMidYMid meet">
<metadata>
Created by potrace 1.16, written by Peter Selinger 2001-2019
</metadata>
<g transform="translate(0.000000,119.000000) scale(0.100000,-0.100000)"
fill="#000000" stroke="none">
<path d="M340 1159 c-64 -55 -79 -72 -110 -130 -47 -88 -80 -185 -101 -293
-10 -54 -21 -101 -24 -104 -3 -3 -5 65 -5 151 0 150 -1 157 -20 157 -15 0 -20
7 -20 25 0 21 -5 25 -30 25 l-30 0 0 -172 c0 -95 5 -207 10 -248 18 -133 32
-342 30 -452 l-1 -108 55 0 56 0 0 148 c1 81 7 180 15 222 7 41 21 113 30 160
9 47 23 125 31 174 16 97 70 240 112 299 35 50 96 86 120 71 59 -36 121 -197
147 -380 9 -60 22 -154 30 -209 8 -55 15 -141 15 -190 l0 -91 55 -54 55 -54 0
65 c0 117 104 458 201 658 55 112 111 181 188 231 62 39 101 39 135 0 39 -47
46 -88 52 -330 8 -266 -2 -370 -51 -563 -19 -76 -35 -144 -35 -152 0 -11 13
-15 49 -15 l48 0 37 152 c52 215 59 302 52 583 -6 264 -15 313 -67 384 -62 87
-169 95 -283 21 -118 -76 -198 -201 -296 -460 -27 -74 -50 -136 -51 -139 -3
-15 -20 74 -35 174 -30 209 -103 392 -178 447 -32 23 -49 28 -95 28 -48 -1
-61 -5 -91 -31z"/>
</g>
</svg>
