<?xml version="1.0" standalone="no"?>
<!DOCTYPE svg PUBLIC "-//W3C//DTD SVG 20010904//EN"
 "http://www.w3.org/TR/2001/REC-SVG-20010904/DTD/svg10.dtd">
<svg version="1.0" xmlns="http://www.w3.org/2000/svg"
 width="17.000000pt" height="186.000000pt" viewBox="0 0 17.000000 186.000000"
 preserveAspectRatio="xMidYMid meet">
<metadata>
Created by potrace 1.16, written by Peter Selinger 2001-2019
</metadata>
<g transform="translate(0.000000,186.000000) scale(0.100000,-0.100000)"
fill="#000000" stroke="none">
<path d="M90 1835 c0 -18 -5 -25 -20 -25 -24 0 -27 -32 -5 -50 23 -19 58 1 79
44 20 43 15 56 -25 56 -24 0 -29 -4 -29 -25z"/>
<path d="M36 1415 c24 -52 25 -63 21 -168 -3 -61 -10 -161 -16 -222 -5 -60
-10 -196 -10 -300 -1 -105 -6 -262 -12 -350 -6 -88 -8 -197 -4 -243 l7 -83 40
-20 c22 -11 43 -17 46 -14 4 4 7 73 8 153 1 260 24 906 34 952 13 61 12 236
-1 283 -8 31 -14 37 -30 32 -15 -5 -19 -2 -19 14 0 18 -6 21 -44 21 l-45 0 25
-55z"/>
</g>
</svg>
