<?xml version="1.0" standalone="no"?>
<!DOCTYPE svg PUBLIC "-//W3C//DTD SVG 20010904//EN"
 "http://www.w3.org/TR/2001/REC-SVG-20010904/DTD/svg10.dtd">
<svg version="1.0" xmlns="http://www.w3.org/2000/svg"
 width="100.000000pt" height="198.000000pt" viewBox="0 0 100.000000 198.000000"
 preserveAspectRatio="xMidYMid meet">
<metadata>
Created by potrace 1.16, written by Peter Selinger 2001-2019
</metadata>
<g transform="translate(0.000000,198.000000) scale(0.100000,-0.100000)"
fill="#000000" stroke="none">
<path d="M160 1888 c0 -74 3 -87 20 -99 16 -12 21 -32 29 -114 8 -84 18 -122
60 -232 28 -73 51 -137 51 -143 0 -20 73 -155 117 -218 65 -92 123 -114 191
-72 31 19 33 19 28 3 -3 -10 -21 -74 -40 -143 -42 -154 -39 -146 -88 -252
l-41 -86 -43 21 c-40 19 -49 20 -90 9 -68 -18 -173 -83 -224 -139 -59 -63
-118 -190 -126 -268 -5 -50 -2 -67 18 -105 22 -43 25 -45 70 -48 54 -4 80 8
179 79 77 54 127 106 178 183 19 28 35 53 37 55 2 2 34 -23 71 -56 158 -139
287 -195 406 -176 37 6 37 6 37 53 l0 48 -73 0 c-59 1 -85 6 -130 27 -53 25
-171 119 -226 178 l-24 27 61 132 c60 130 144 400 178 572 7 37 21 83 31 101
10 18 33 60 50 93 40 75 73 190 73 258 0 63 -19 84 -78 84 -38 0 -42 -3 -42
-24 0 -13 -7 -41 -16 -61 -8 -21 -30 -97 -48 -169 -36 -142 -57 -182 -142
-270 l-47 -49 -39 44 c-38 43 -118 189 -118 214 0 7 -21 66 -46 131 -37 95
-48 136 -55 217 -12 122 -30 166 -98 232 l-51 49 0 -86z m255 -1442 c15 -23
14 -27 -21 -83 -58 -91 -128 -165 -202 -216 -88 -60 -97 -60 -88 -1 15 114
108 239 221 298 61 32 70 32 90 2z"/>
</g>
</svg>
