<?xml version="1.0" standalone="no"?>
<!DOCTYPE svg PUBLIC "-//W3C//DTD SVG 20010904//EN"
 "http://www.w3.org/TR/2001/REC-SVG-20010904/DTD/svg10.dtd">
<svg version="1.0" xmlns="http://www.w3.org/2000/svg"
 width="94.000000pt" height="217.000000pt" viewBox="0 0 94.000000 217.000000"
 preserveAspectRatio="xMidYMid meet">
<metadata>
Created by potrace 1.16, written by Peter Selinger 2001-2019
</metadata>
<g transform="translate(0.000000,217.000000) scale(0.100000,-0.100000)"
fill="#000000" stroke="none">
<path d="M75 2000 c3 -85 9 -204 15 -265 20 -240 4 -679 -30 -805 -6 -19 -10
-60 -10 -90 0 -30 -11 -149 -25 -264 -25 -205 -31 -392 -19 -515 l7 -61 48 0
48 0 -6 173 c-5 144 -2 202 17 359 l23 186 96 -72 c53 -41 105 -83 116 -95 10
-12 58 -45 105 -74 47 -28 104 -65 127 -82 23 -16 65 -46 93 -65 29 -19 78
-56 111 -83 l59 -48 40 21 c22 11 40 26 40 32 0 15 -87 95 -130 119 -19 11
-69 44 -110 74 -41 30 -106 74 -145 98 -131 82 -375 285 -375 312 0 17 34 45
150 124 187 127 244 170 290 214 59 58 113 97 133 97 12 0 17 9 17 30 0 17 -5
30 -11 30 -8 0 -8 4 1 15 19 22 3 35 -46 35 -32 0 -44 -4 -44 -15 0 -7 -21
-31 -46 -52 -26 -21 -59 -51 -73 -67 -14 -16 -59 -52 -99 -80 -123 -86 -267
-185 -268 -183 -1 1 5 58 13 127 11 94 13 192 9 395 -8 379 -13 410 -76 531
l-51 99 6 -155z"/>
</g>
</svg>
