<?xml version="1.0" standalone="no"?>
<!DOCTYPE svg PUBLIC "-//W3C//DTD SVG 20010904//EN"
 "http://www.w3.org/TR/2001/REC-SVG-20010904/DTD/svg10.dtd">
<svg version="1.0" xmlns="http://www.w3.org/2000/svg"
 width="117.000000pt" height="170.000000pt" viewBox="0 0 117.000000 170.000000"
 preserveAspectRatio="xMidYMid meet">
<metadata>
Created by potrace 1.16, written by Peter Selinger 2001-2019
</metadata>
<g transform="translate(0.000000,170.000000) scale(0.100000,-0.100000)"
fill="#000000" stroke="none">
<path d="M505 1683 c-210 -79 -305 -154 -375 -298 -35 -71 -55 -193 -45 -275
13 -100 89 -192 201 -241 23 -10 79 -22 126 -25 72 -6 94 -3 148 15 78 27 119
47 148 74 l22 20 0 -34 c0 -59 -93 -407 -119 -448 -8 -12 -16 -10 -48 11 -50
35 -103 48 -189 48 -61 0 -83 -5 -148 -36 -93 -43 -151 -99 -196 -191 -29 -59
-32 -72 -27 -127 6 -69 18 -83 103 -122 100 -47 230 -41 348 15 75 36 124 83
162 156 16 30 32 55 35 55 4 0 26 -25 50 -56 50 -65 171 -179 213 -201 44 -23
152 -22 204 1 23 10 42 24 42 31 0 6 -13 24 -29 39 -26 25 -32 27 -65 17 -63
-17 -100 -4 -172 62 -36 33 -97 98 -135 143 l-69 83 18 43 c22 50 60 180 97
328 24 95 27 129 32 350 4 159 1 282 -6 350 -15 134 -18 142 -42 135 -14 -5
-19 -2 -19 12 0 11 -15 33 -33 51 -32 31 -36 32 -112 31 -45 -1 -98 -8 -120
-16z m171 -110 c51 -70 73 -341 38 -449 -25 -74 -92 -138 -173 -165 -58 -20
-73 -21 -141 -12 -63 8 -85 16 -128 48 -71 51 -86 82 -85 176 1 110 22 172 85
246 63 75 113 111 193 142 33 13 69 27 80 32 11 4 41 8 66 8 38 1 48 -3 65
-26z m-164 -1177 c26 -15 50 -32 53 -37 10 -16 -57 -129 -94 -158 -75 -60
-118 -75 -211 -76 -72 0 -91 4 -123 23 -43 27 -47 53 -17 110 31 59 81 109
140 142 51 28 61 31 130 27 58 -3 86 -10 122 -31z"/>
</g>
</svg>
