<?xml version="1.0" standalone="no"?>
<!DOCTYPE svg PUBLIC "-//W3C//DTD SVG 20010904//EN"
 "http://www.w3.org/TR/2001/REC-SVG-20010904/DTD/svg10.dtd">
<svg version="1.0" xmlns="http://www.w3.org/2000/svg"
 width="110.000000pt" height="117.000000pt" viewBox="0 0 110.000000 117.000000"
 preserveAspectRatio="xMidYMid meet">
<metadata>
Created by potrace 1.16, written by Peter Selinger 2001-2019
</metadata>
<g transform="translate(0.000000,117.000000) scale(0.100000,-0.100000)"
fill="#000000" stroke="none">
<path d="M505 1156 c-27 -7 -64 -20 -82 -29 -18 -9 -38 -17 -46 -17 -20 0
-107 -39 -137 -62 -14 -10 -36 -26 -48 -36 -31 -22 -63 -54 -84 -84 -9 -12
-28 -36 -41 -53 -13 -16 -27 -41 -30 -55 -3 -14 -13 -50 -22 -80 -12 -40 -15
-80 -12 -150 5 -85 10 -105 48 -190 62 -138 104 -193 211 -276 116 -91 255
-130 423 -121 57 3 116 12 137 21 21 9 51 16 67 16 29 0 81 37 81 57 0 5 -9
18 -20 28 -11 10 -20 24 -20 32 0 7 -5 13 -12 13 -16 0 -82 -23 -88 -31 -11
-14 -134 -39 -190 -39 -121 0 -215 30 -299 94 -92 71 -146 136 -191 231 -36
76 -43 101 -48 172 l-5 83 139 -6 c76 -3 272 -1 435 4 273 10 298 12 331 32
83 49 111 125 88 247 -11 57 -19 74 -51 105 -50 49 -77 62 -185 87 -104 24
-267 27 -349 7z m329 -107 c113 -27 150 -59 161 -139 8 -59 -9 -94 -53 -112
-55 -21 -779 -35 -799 -14 -13 13 60 106 127 160 50 40 145 82 255 111 78 21
205 18 309 -6z"/>
</g>
</svg>
