<?xml version="1.0" standalone="no"?>
<!DOCTYPE svg PUBLIC "-//W3C//DTD SVG 20010904//EN"
 "http://www.w3.org/TR/2001/REC-SVG-20010904/DTD/svg10.dtd">
<svg version="1.0" xmlns="http://www.w3.org/2000/svg"
 width="111.000000pt" height="135.000000pt" viewBox="0 0 111.000000 135.000000"
 preserveAspectRatio="xMidYMid meet">
<metadata>
Created by potrace 1.16, written by Peter Selinger 2001-2019
</metadata>
<g transform="translate(0.000000,135.000000) scale(0.100000,-0.100000)"
fill="#000000" stroke="none">
<path d="M525 1341 c-49 -12 -205 -91 -262 -133 -51 -37 -153 -159 -153 -183
0 -7 -9 -20 -19 -29 -10 -9 -21 -29 -24 -44 -2 -15 -11 -47 -20 -72 -31 -90
-35 -117 -42 -250 -9 -191 15 -285 101 -395 50 -63 156 -151 204 -169 8 -3 22
-10 30 -15 48 -28 143 -51 213 -51 61 0 191 35 249 67 56 31 138 120 138 150
0 11 7 26 15 33 8 7 15 19 15 26 0 8 4 22 10 32 19 34 40 145 40 213 l0 69
-30 0 c-23 0 -30 -4 -30 -20 0 -15 -7 -20 -25 -20 -23 0 -24 -3 -24 -54 1 -84
-55 -238 -108 -297 -42 -47 -81 -65 -182 -86 -66 -14 -87 -15 -114 -5 -18 7
-41 12 -49 12 -29 0 -105 38 -169 84 -63 46 -117 112 -146 176 -8 19 -20 46
-27 59 -16 36 -10 281 10 361 33 134 130 283 227 347 23 16 76 44 117 63 70
32 82 35 175 35 160 0 240 -35 310 -134 15 -23 30 -55 34 -73 6 -28 12 -33 39
-36 27 -3 32 0 32 17 0 16 6 21 25 21 20 0 25 5 25 27 0 14 -7 33 -15 42 -8 9
-40 46 -71 83 -66 80 -121 114 -223 139 -77 19 -217 24 -276 10z"/>
</g>
</svg>
