<?xml version="1.0" standalone="no"?>
<!DOCTYPE svg PUBLIC "-//W3C//DTD SVG 20010904//EN"
 "http://www.w3.org/TR/2001/REC-SVG-20010904/DTD/svg10.dtd">
<svg version="1.0" xmlns="http://www.w3.org/2000/svg"
 width="77.000000pt" height="138.000000pt" viewBox="0 0 77.000000 138.000000"
 preserveAspectRatio="xMidYMid meet">
<metadata>
Created by potrace 1.16, written by Peter Selinger 2001-2019
</metadata>
<g transform="translate(0.000000,138.000000) scale(0.100000,-0.100000)"
fill="#000000" stroke="none">
<path d="M450 1356 c-47 -13 -117 -39 -156 -59 -137 -69 -274 -213 -274 -288
0 -14 14 -53 30 -86 31 -62 86 -115 182 -175 76 -47 188 -149 224 -204 47 -71
70 -134 79 -216 6 -59 5 -71 -15 -105 -31 -51 -69 -92 -102 -109 -31 -16 -133
-17 -218 -3 -30 5 -80 12 -111 15 l-55 6 -14 -41 c-7 -23 -10 -44 -6 -48 3 -4
28 -10 54 -14 26 -4 76 -12 112 -18 36 -6 102 -11 148 -11 72 0 90 4 141 29
88 45 156 136 168 229 11 85 -43 277 -100 354 -36 50 -117 124 -195 180 -128
92 -193 149 -209 183 -15 31 -15 36 0 58 26 41 159 153 212 180 101 50 315 86
315 53 0 -26 40 -30 64 -7 12 12 28 21 34 21 7 0 12 14 12 33 0 27 -6 35 -36
50 -50 24 -175 21 -284 -7z"/>
</g>
</svg>
