<?xml version="1.0" standalone="no"?>
<!DOCTYPE svg PUBLIC "-//W3C//DTD SVG 20010904//EN"
 "http://www.w3.org/TR/2001/REC-SVG-20010904/DTD/svg10.dtd">
<svg version="1.0" xmlns="http://www.w3.org/2000/svg"
 width="83.000000pt" height="184.000000pt" viewBox="0 0 83.000000 184.000000"
 preserveAspectRatio="xMidYMid meet">
<metadata>
Created by potrace 1.16, written by Peter Selinger 2001-2019
</metadata>
<g transform="translate(0.000000,184.000000) scale(0.100000,-0.100000)"
fill="#000000" stroke="none">
<path d="M354 1816 c-104 -48 -141 -97 -200 -261 l-32 -90 -12 43 c-13 42 -13
42 -62 42 -52 0 -56 -7 -38 -55 5 -14 18 -81 28 -148 15 -94 17 -142 11 -212
-5 -51 -4 -171 2 -280 7 -133 7 -253 0 -400 -6 -115 -11 -264 -11 -332 l0
-123 30 0 c23 0 30 4 30 20 0 14 7 20 24 20 13 0 27 7 30 16 3 9 6 168 6 353
0 186 3 358 6 383 6 44 9 46 74 82 38 20 117 52 177 71 231 75 356 190 398
366 22 96 19 177 -10 261 -73 208 -283 322 -451 244z m183 -88 c15 -7 54 -34
85 -61 96 -83 129 -202 93 -340 -19 -73 -50 -122 -111 -172 -71 -59 -111 -80
-219 -115 -53 -16 -122 -44 -154 -60 l-58 -29 -7 137 c-7 127 -6 144 18 234
79 302 156 416 283 418 23 0 55 -6 70 -12z"/>
</g>
</svg>
