<?xml version="1.0" standalone="no"?>
<!DOCTYPE svg PUBLIC "-//W3C//DTD SVG 20010904//EN"
 "http://www.w3.org/TR/2001/REC-SVG-20010904/DTD/svg10.dtd">
<svg version="1.0" xmlns="http://www.w3.org/2000/svg"
 width="70.000000pt" height="182.000000pt" viewBox="0 0 70.000000 182.000000"
 preserveAspectRatio="xMidYMid meet">
<metadata>
Created by potrace 1.16, written by Peter Selinger 2001-2019
</metadata>
<g transform="translate(0.000000,182.000000) scale(0.100000,-0.100000)"
fill="#000000" stroke="none">
<path d="M540 1780 c0 -28 4 -40 14 -40 8 0 16 -5 18 -12 7 -21 66 13 71 42 7
36 -9 50 -59 50 l-44 0 0 -40z"/>
<path d="M584 1293 c3 -32 9 -148 12 -258 6 -187 4 -215 -25 -430 -18 -126
-38 -255 -46 -285 -18 -70 -70 -166 -101 -187 -61 -39 -234 -5 -301 59 -35 33
-43 33 -97 -7 -18 -13 -18 -15 4 -44 25 -36 81 -71 165 -102 46 -18 80 -23
147 -22 120 1 159 25 222 138 56 101 58 109 101 409 39 275 45 459 24 673
l-12 113 -50 0 -49 0 6 -57z"/>
</g>
</svg>
