<?xml version="1.0" standalone="no"?>
<!DOCTYPE svg PUBLIC "-//W3C//DTD SVG 20010904//EN"
 "http://www.w3.org/TR/2001/REC-SVG-20010904/DTD/svg10.dtd">
<svg version="1.0" xmlns="http://www.w3.org/2000/svg"
 width="97.000000pt" height="155.000000pt" viewBox="0 0 97.000000 155.000000"
 preserveAspectRatio="xMidYMid meet">
<metadata>
Created by potrace 1.16, written by Peter Selinger 2001-2019
</metadata>
<g transform="translate(0.000000,155.000000) scale(0.100000,-0.100000)"
fill="#000000" stroke="none">
<path d="M416 1508 c-3 -24 -8 -86 -12 -139 l-6 -97 -61 -6 c-34 -3 -117 -8
-183 -12 -67 -4 -126 -9 -131 -13 -5 -3 -7 -28 -5 -54 4 -44 6 -48 26 -44 11
3 66 8 121 11 55 4 129 9 164 12 l64 6 -6 -64 c-4 -34 -11 -99 -17 -143 -43
-339 -44 -549 -6 -715 34 -151 59 -198 116 -227 43 -22 102 -29 134 -17 12 4
16 20 16 55 l0 50 -47 -7 c-68 -8 -84 12 -118 156 -22 90 -28 141 -28 235 -1
118 13 318 33 465 5 41 13 105 16 143 l7 67 102 0 c56 0 163 3 238 7 l137 6 0
49 0 49 -236 -7 -237 -7 7 79 c4 43 9 96 12 117 5 33 3 37 -15 37 -16 0 -21 6
-21 25 0 21 -5 25 -29 25 -27 0 -30 -3 -35 -42z"/>
</g>
</svg>
