<?xml version="1.0" standalone="no"?>
<!DOCTYPE svg PUBLIC "-//W3C//DTD SVG 20010904//EN"
 "http://www.w3.org/TR/2001/REC-SVG-20010904/DTD/svg10.dtd">
<svg version="1.0" xmlns="http://www.w3.org/2000/svg"
 width="103.000000pt" height="115.000000pt" viewBox="0 0 103.000000 115.000000"
 preserveAspectRatio="xMidYMid meet">
<metadata>
Created by potrace 1.16, written by Peter Selinger 2001-2019
</metadata>
<g transform="translate(0.000000,115.000000) scale(0.100000,-0.100000)"
fill="#000000" stroke="none">
<path d="M111 1125 c-64 -54 -106 -264 -106 -525 1 -152 3 -171 28 -246 48
-144 131 -246 226 -279 71 -24 110 -19 197 26 82 42 124 81 213 196 l48 62 17
-84 c43 -215 87 -275 204 -275 69 0 90 24 72 80 -14 43 -24 47 -65 28 -43 -19
-72 20 -100 134 -36 148 -42 269 -17 359 11 41 32 133 46 204 14 72 30 149 36
173 5 23 10 71 10 107 l0 65 -40 0 c-63 0 -87 -17 -109 -74 -29 -79 -40 -147
-51 -331 -15 -234 -32 -275 -189 -453 -80 -90 -161 -137 -221 -127 -76 13
-163 133 -196 271 -20 84 -15 298 11 443 20 111 30 141 55 161 15 12 18 24 13
63 -5 41 -9 47 -29 47 -12 0 -36 -11 -53 -25z"/>
</g>
</svg>
