<?xml version="1.0" standalone="no"?>
<!DOCTYPE svg PUBLIC "-//W3C//DTD SVG 20010904//EN"
 "http://www.w3.org/TR/2001/REC-SVG-20010904/DTD/svg10.dtd">
<svg version="1.0" xmlns="http://www.w3.org/2000/svg"
 width="79.000000pt" height="206.000000pt" viewBox="0 0 79.000000 206.000000"
 preserveAspectRatio="xMidYMid meet">
<metadata>
Created by potrace 1.16, written by Peter Selinger 2001-2019
</metadata>
<g transform="translate(0.000000,206.000000) scale(0.100000,-0.100000)"
fill="#000000" stroke="none">
<path d="M83 2013 c36 -317 31 -545 -18 -1008 -37 -349 -55 -592 -62 -840 l-4
-160 55 55 55 55 10 150 c6 83 16 177 22 210 6 33 14 80 19 105 5 25 13 76 19
115 7 38 30 125 53 193 32 95 51 134 80 167 53 60 97 85 148 85 40 0 100 -25
100 -42 0 -4 15 -25 34 -45 81 -92 119 -433 81 -743 -18 -153 -18 -201 2 -207
7 -3 20 5 30 16 9 12 25 21 34 21 20 0 23 14 40 195 7 74 10 192 6 308 -5 171
-9 200 -38 304 -31 111 -63 172 -126 237 -54 55 -182 73 -268 36 -53 -23 -149
-114 -170 -162 -18 -41 -18 -32 -1 122 22 189 29 456 18 640 -12 185 -16 203
-43 195 -15 -5 -19 -1 -19 19 0 22 -4 26 -31 26 l-31 0 5 -47z"/>
</g>
</svg>
