<?xml version="1.0" standalone="no"?>
<!DOCTYPE svg PUBLIC "-//W3C//DTD SVG 20010904//EN"
 "http://www.w3.org/TR/2001/REC-SVG-20010904/DTD/svg10.dtd">
<svg version="1.0" xmlns="http://www.w3.org/2000/svg"
 width="166.000000pt" height="132.000000pt" viewBox="0 0 166.000000 132.000000"
 preserveAspectRatio="xMidYMid meet">
<metadata>
Created by potrace 1.16, written by Peter Selinger 2001-2019
</metadata>
<g transform="translate(0.000000,132.000000) scale(0.100000,-0.100000)"
fill="#000000" stroke="none">
<path d="M15 1300 c-21 -23 -16 -91 9 -119 29 -32 76 -167 102 -291 14 -69 31
-150 39 -180 8 -30 21 -100 29 -155 8 -55 20 -114 26 -130 6 -16 18 -61 26
-100 14 -64 66 -178 100 -216 19 -22 87 -32 117 -18 32 14 83 101 123 207 37
98 134 446 135 483 0 13 13 74 29 134 l28 110 1 -191 c2 -338 49 -586 141
-738 27 -44 43 -59 76 -72 39 -15 46 -15 86 1 33 13 53 31 86 78 74 106 131
210 153 277 19 55 186 395 209 425 5 6 19 39 33 75 13 36 39 92 57 125 26 47
30 63 21 77 -6 10 -11 29 -11 43 0 30 -29 34 -52 8 -21 -24 -92 -169 -108
-218 -7 -22 -20 -51 -29 -65 -29 -42 -189 -371 -216 -442 -39 -102 -150 -280
-181 -292 -20 -8 -58 55 -93 149 -50 138 -63 260 -71 665 -4 201 -8 366 -9
368 0 1 -23 2 -51 2 -41 0 -52 -4 -65 -23 -21 -33 -53 -128 -74 -222 -10 -44
-26 -109 -34 -145 -9 -36 -35 -144 -58 -240 -23 -96 -55 -215 -71 -264 -32
-101 -85 -216 -98 -216 -33 0 -103 219 -134 418 -43 284 -156 661 -200 670 -9
2 -16 12 -16 23 0 25 -32 25 -55 -1z"/>
</g>
</svg>
