<?xml version="1.0" standalone="no"?>
<!DOCTYPE svg PUBLIC "-//W3C//DTD SVG 20010904//EN"
 "http://www.w3.org/TR/2001/REC-SVG-20010904/DTD/svg10.dtd">
<svg version="1.0" xmlns="http://www.w3.org/2000/svg"
 width="123.000000pt" height="132.000000pt" viewBox="0 0 123.000000 132.000000"
 preserveAspectRatio="xMidYMid meet">
<metadata>
Created by potrace 1.16, written by Peter Selinger 2001-2019
</metadata>
<g transform="translate(0.000000,132.000000) scale(0.100000,-0.100000)"
fill="#000000" stroke="none">
<path d="M509 1306 c-89 -24 -188 -101 -269 -210 -20 -28 -44 -57 -53 -65 -28
-23 -124 -212 -153 -301 -22 -70 -27 -104 -28 -195 -1 -132 21 -213 86 -320
48 -78 126 -139 233 -183 74 -30 215 -41 296 -22 85 19 218 95 336 190 196
159 272 300 273 507 0 101 -13 167 -52 252 -38 86 -124 199 -176 234 -100 65
-119 76 -157 86 -22 6 -65 11 -95 11 -30 1 -66 7 -80 15 -30 17 -99 18 -161 1z
m69 -122 c8 -17 18 -24 30 -20 115 34 203 33 267 -5 107 -64 217 -213 245
-331 14 -63 12 -186 -5 -250 -35 -137 -177 -292 -372 -407 -92 -54 -148 -71
-239 -71 -277 0 -456 258 -385 555 24 97 96 252 140 300 16 17 42 50 59 75 33
51 146 154 183 169 42 17 65 13 77 -15z"/>
</g>
</svg>
